<svg xmlns="http://www.w3.org/2000/svg" width="1280" height="640" viewBox="0 0 1280 640" role="img" aria-label="MyVoiceTyping social preview">
  <defs>
    <linearGradient id="bg" x1="0" y1="0" x2="1" y2="1">
      <stop offset="0" stop-color="#0f172a"/>
      <stop offset="0.55" stop-color="#111827"/>
      <stop offset="1" stop-color="#312e81"/>
    </linearGradient>
    <linearGradient id="accent" x1="0" y1="0" x2="1" y2="1">
      <stop offset="0" stop-color="#60a5fa"/>
      <stop offset="1" stop-color="#22d3ee"/>
    </linearGradient>
    <pattern id="grid" width="48" height="48" patternUnits="userSpaceOnUse">
      <path d="M 48 0 L 0 0 0 48" fill="none" stroke="rgba(255,255,255,0.13)" stroke-width="1"/>
    </pattern>
    <filter id="shadow" x="-20%" y="-20%" width="140%" height="140%">
      <feDropShadow dx="0" dy="24" stdDeviation="28" flood-color="#020617" flood-opacity="0.38"/>
    </filter>
  </defs>

  <rect width="1280" height="640" fill="url(#bg)"/>
  <rect width="1280" height="640" fill="url(#grid)" opacity="0.9"/>
  <circle cx="1080" cy="120" r="220" fill="#4f46e5" opacity="0.18"/>
  <circle cx="920" cy="560" r="260" fill="#0891b2" opacity="0.16"/>

  <g transform="translate(72 60)">
    <rect x="0" y="0" width="52" height="52" rx="15" fill="#3b82f6"/>
    <rect x="18" y="16" width="17" height="20" rx="2" fill="none" stroke="white" stroke-width="3"/>
    <text x="72" y="36" font-family="-apple-system, BlinkMacSystemFont, Segoe UI, sans-serif" font-size="28" font-weight="700" fill="#f8fafc">MyVoiceTyping</text>
  </g>

  <g transform="translate(72 158)">
    <rect x="0" y="0" width="492" height="48" rx="24" fill="#67e8f9" opacity="0.96"/>
    <text x="24" y="31" font-family="-apple-system, BlinkMacSystemFont, Segoe UI, sans-serif" font-size="19" font-weight="700" fill="#083344">Typeless 平替方向 · 开源 · 本地优先 · 0 费用</text>
  </g>

  <text x="72" y="286" font-family="-apple-system, BlinkMacSystemFont, Segoe UI, sans-serif" font-size="66" font-weight="800" fill="#f8fafc">中文语音输入，</text>
  <text x="72" y="365" font-family="-apple-system, BlinkMacSystemFont, Segoe UI, sans-serif" font-size="66" font-weight="800" fill="#f8fafc">越用越懂你。</text>
  <text x="72" y="424" font-family="-apple-system, BlinkMacSystemFont, Segoe UI, sans-serif" font-size="27" fill="#cbd5e1">macOS · 中文 / 中英混合 · App / 模型 / 数据集公开</text>
  <text x="72" y="462" font-family="-apple-system, BlinkMacSystemFont, Segoe UI, sans-serif" font-size="24" fill="#a5f3fc">Self-Evolution：voice_history → MLX LoRA → GGUF Q4</text>

  <g transform="translate(72 508)">
    <rect x="0" y="0" width="132" height="42" rx="21" fill="white" opacity="0.95"/>
    <text x="26" y="27" font-family="-apple-system, BlinkMacSystemFont, Segoe UI, sans-serif" font-size="17" font-weight="700" fill="#1e293b">AI Coding</text>
    <rect x="150" y="0" width="128" height="42" rx="21" fill="white" opacity="0.95"/>
    <text x="180" y="27" font-family="-apple-system, BlinkMacSystemFont, Segoe UI, sans-serif" font-size="17" font-weight="700" fill="#1e293b">本地隐私</text>
    <rect x="296" y="0" width="142" height="42" rx="21" fill="white" opacity="0.95"/>
    <text x="321" y="27" font-family="-apple-system, BlinkMacSystemFont, Segoe UI, sans-serif" font-size="17" font-weight="700" fill="#1e293b">中英混合</text>
    <rect x="456" y="0" width="128" height="42" rx="21" fill="white" opacity="0.95"/>
    <text x="486" y="27" font-family="-apple-system, BlinkMacSystemFont, Segoe UI, sans-serif" font-size="17" font-weight="700" fill="#1e293b">可审查</text>
  </g>

  <g transform="translate(720 120)" filter="url(#shadow)">
    <rect x="0" y="0" width="470" height="380" rx="34" fill="rgba(255,255,255,0.96)"/>
    <circle cx="38" cy="34" r="7" fill="#fb7185"/>
    <circle cx="62" cy="34" r="7" fill="#f59e0b"/>
    <circle cx="86" cy="34" r="7" fill="#34d399"/>
    <circle cx="235" cy="154" r="76" fill="url(#accent)"/>
    <circle cx="235" cy="154" r="54" fill="none" stroke="white" stroke-width="3" opacity="0.85"/>
    <rect x="218" y="136" width="34" height="40" rx="5" fill="none" stroke="white" stroke-width="5"/>

    <g transform="translate(54 264)">
      <circle cx="18" cy="18" r="18" fill="#3b82f6"/>
      <text x="13" y="25" font-family="-apple-system, BlinkMacSystemFont, Segoe UI, sans-serif" font-size="20" font-weight="700" fill="white">1</text>
      <text x="54" y="25" font-family="-apple-system, BlinkMacSystemFont, Segoe UI, sans-serif" font-size="22" font-weight="700" fill="#0f172a">按住说话</text>
    </g>
    <g transform="translate(54 316)">
      <circle cx="18" cy="18" r="18" fill="#3b82f6"/>
      <text x="13" y="25" font-family="-apple-system, BlinkMacSystemFont, Segoe UI, sans-serif" font-size="20" font-weight="700" fill="white">2</text>
      <text x="54" y="25" font-family="-apple-system, BlinkMacSystemFont, Segoe UI, sans-serif" font-size="22" font-weight="700" fill="#0f172a">本地润写 / 粘贴</text>
    </g>
    <g transform="translate(254 316)">
      <circle cx="18" cy="18" r="18" fill="#3b82f6"/>
      <text x="13" y="25" font-family="-apple-system, BlinkMacSystemFont, Segoe UI, sans-serif" font-size="20" font-weight="700" fill="white">3</text>
      <text x="54" y="25" font-family="-apple-system, BlinkMacSystemFont, Segoe UI, sans-serif" font-size="22" font-weight="700" fill="#0f172a">本机自进化</text>
    </g>
  </g>

  <text x="778" y="570" font-family="-apple-system, BlinkMacSystemFont, Segoe UI, sans-serif" font-size="24" fill="#e2e8f0">botaruibo.github.io/MyVoiceTyping/landing/</text>
</svg>
